<?xml version="1.0" encoding="utf-8"?>
<!-- Generator: Adobe Illustrator 16.0.0, SVG Export Plug-In . SVG Version: 6.00 Build 0)  -->
<!DOCTYPE svg PUBLIC "-//W3C//DTD SVG 1.1//EN" "http://www.w3.org/Graphics/SVG/1.1/DTD/svg11.dtd">
<svg version="1.1" id="Capa_1" xmlns="http://www.w3.org/2000/svg" xmlns:xlink="http://www.w3.org/1999/xlink" x="0px" y="0px"
	 width="1200px" height="1200px" viewBox="0 0 1200 1200" enable-background="new 0 0 1200 1200" xml:space="preserve">
<path fill="#5D5A61" d="M1143.126,677c3.565-25,5.413-50.918,5.413-77.168c0-302.95-245.59-548.455-548.539-548.455
	c-302.95,0-548.539,245.631-548.539,548.581c0,302.949,245.589,548.56,548.539,548.56c274.151,0,501.325-201.278,542.037-464.022
	c1.171-1.066,1.575-2.49,1.641-3.811C1143.773,678.729,1143.126,677,1143.126,677z M926.056,848.064
	c0,9.316-8.323,16.868-18.591,16.868c-10.269,0-18.592-7.552-18.592-16.868c0-9.315,8.323-16.867,18.592-16.867
	C917.732,831.197,926.056,838.749,926.056,848.064z M419,702H129.695c-2.96-13-5.341-27-7.115-41h285.393
	c6.264,0,11.027,4.763,11.027,10.842V702z M600,1081.234c-220.128,0-405.734-147.801-462.999-349.576
	c1.229,1.73,2.426,3.496,3.586,5.258c0.878,1.334,1.732,3.084,2.573,4.084H419v102.181c-14,8.249-24.419,23.949-24.419,41.973
	c0,26.584,21.63,48.135,48.214,48.135s47.946-21.551,47.946-48.135c0-18.822-10.741-35.109-26.741-43.023V741h82.631
	c7.966,0,14.369,5.845,14.369,13.1v207.183c-13,8.876-22.114,24.044-22.114,41.271c0,27.361,22.193,49.54,49.552,49.54
	c27.36,0,49.314-22.179,49.314-49.54c0-16.075-7.753-30.354-19.753-39.405V718.941c0-9.121-7.654-16.941-17.666-16.941H464v-59.614
	c0-7.642-5.927-13.386-13.798-13.386h-330.59c-0.553-10-0.842-19.414-0.842-29h440.537c9.75,0,17.694-7.641,17.694-17.065V327.848
	c19-9.981,31.865-29.861,31.865-52.771c0-32.925-26.7-59.616-59.625-59.616c-32.924,0-59.646,26.691-59.646,59.616
	c0,22.73,12.406,42.485,31.406,52.542v218.986c0,7.498-6.236,13.396-13.994,13.396H120.402c2.018-24,5.89-48.558,11.478-72H434
	c6.627,0,12-5.373,12-12V294.296c16.605-7.63,28.143-24.396,28.143-43.868c0-26.655-21.608-48.264-48.264-48.264
	s-48.264,21.608-48.264,48.264c0,20.336,12.584,37.723,30.385,44.829v155.195c0,5.273-4.274,9.547-9.547,9.547H139.46
	C199.418,262.508,382.919,118.801,600,118.801c235.345,0,431.225,169.199,472.997,392.199H932.721c-3.526,0-6.721-2.658-6.721-5.857
	v-94.902c12-4.387,20.159-14.859,20.159-27.085c0-16.175-14.369-29.288-32.197-29.288s-32.198,13.113-32.198,29.288
	c0,11.933,8.236,22.192,19.236,26.756v110.733c0,4.022,3.514,7.355,7.945,7.355h166.919c3.4,23,5.22,46,5.35,69H846.268
	c-4.639,0-8.268-3.875-8.268-9V440.27c14-6.5,23.406-20.289,23.406-36.248c0-22.215-18.602-40.224-41.505-40.224
	c-22.905,0-41.708,18.009-41.708,40.224c0,16.924,10.807,31.396,25.807,37.335v171.472c0,6.441,5.164,11.171,10.993,11.171h265.624
	c-0.896,18-2.777,36-5.575,53H759.711c-7.97,0-14.711,6.027-14.711,13.047V873.76c-15,7.578-24.744,22.001-24.744,38.558
	c0,24.421,21.89,44.219,48.806,44.219s48.778-19.798,48.778-44.219c0-17.289-10.84-32.252-26.84-39.521v-155.69
	c0-5.584,5.125-10.105,11.468-10.105H895v117c0,0-0.153,0-0.15,0c-9.797,4-16.561,13.449-16.561,23.969
	c0,14.621,13.063,26.519,29.176,26.519c16.112,0,29.232-11.826,29.232-26.446c0-10.941-7.697-20.308-17.697-24.34V713.336
	c0-2.949,1.611-5.336,4.001-6.336h146.286C1020.637,921,829.002,1081.234,600,1081.234z M442.874,854.479
	c16.94,0,30.673,13.733,30.673,30.674c0,16.939-13.733,30.673-30.673,30.673s-30.673-13.733-30.673-30.673
	C412.201,868.213,425.934,854.479,442.874,854.479z M585.579,971.121c2.134,0.021,4.268,0.041,6.402,0.065
	c15.773,1.755,28.04,15.126,28.04,31.366c0,17.435-14.134,31.568-31.568,31.568c-17.434,0-31.567-14.134-31.567-31.568
	C556.885,986.089,569.492,972.574,585.579,971.121z M549.23,313.065c-20.98,0-37.988-17.008-37.988-37.988
	c0-20.98,17.008-37.989,37.988-37.989c20.98,0,37.989,17.008,37.989,37.989C587.219,296.057,570.211,313.065,549.23,313.065z
	 M425.879,281.184c-16.985,0-30.755-13.77-30.755-30.755s13.77-30.755,30.755-30.755s30.755,13.77,30.755,30.755
	S442.864,281.184,425.879,281.184z M914.046,401.819c-11.36,0-20.569-8.356-20.569-18.663s9.209-18.663,20.569-18.663
	s20.571,8.355,20.571,18.663S925.406,401.819,914.046,401.819z M819.868,429.654c-14.596,0-26.428-11.477-26.428-25.632
	s11.832-25.632,26.428-25.632c14.595,0,26.427,11.476,26.427,25.632S834.463,429.654,819.868,429.654z M768.842,884.146
	c0.142-0.002,0.283-0.002,0.424-0.004c17.089,0.066,30.922,12.654,30.922,28.175c0,15.562-13.905,28.178-31.057,28.178
	s-31.056-12.616-31.056-28.178C738.075,896.844,751.824,884.288,768.842,884.146z"/>
<!-- <circle fill="#3C2848" cx="370.959" cy="572.206" r="222.959"/> -->
<circle fill="#3C2848" cx="370.959" cy="572.206" r="222.959"/>
<g>
	<g>
		<path fill="#935C54" d="M436.817,451.045l-86.869,27.277c-3.739,1.174-5.817,5.157-4.644,8.895l2.978,9.483
			c-1.058-3.368,0.815-6.957,4.184-8.014l78.055-24.51c3.368-1.058,6.957,0.816,8.015,4.185l25.217,80.311
			c1.059,3.368-0.815,6.958-4.184,8.015l9.485-2.977c3.737-1.174,5.816-5.157,4.643-8.895l-27.986-89.125
			C444.539,451.95,440.556,449.872,436.817,451.045z"/>
	</g>
	<path fill="#FFFFFF" d="M378.524,589.572l92.237-28.963c3.969-1.247,6.176-5.477,4.924-9.463l-3.174-10.11
		c1.127,3.591-0.829,7.51-4.405,8.633l-82.878,26.024c-3.577,1.123-7.484-0.955-8.612-4.546l-26.883-85.613
		c-1.128-3.591,0.921-7.434,4.498-8.556l-10.069,3.162c-3.97,1.247-6.173,5.487-4.922,9.473l29.833,95.009
		C370.325,588.608,374.555,590.819,378.524,589.572z"/>
</g>
<g>
	<path fill="#935C54" d="M342.231,406.381l-86.869,27.277c-3.739,1.174-5.817,5.156-4.644,8.895l2.978,9.484
		c-1.058-3.369,0.816-6.958,4.184-8.015l78.055-24.509c3.369-1.058,6.958,0.815,8.016,4.184l25.217,80.311
		c1.059,3.369-0.815,6.958-4.184,8.014l9.484-2.976c3.738-1.174,5.817-5.158,4.643-8.896l-27.985-89.125
		C349.952,407.286,345.97,405.207,342.231,406.381z"/>
	<path fill="#FFFFFF" d="M283.938,544.908l92.237-28.962c3.97-1.247,6.176-5.478,4.924-9.464l-3.174-10.11
		c1.128,3.591-0.828,7.509-4.404,8.633l-82.878,26.023c-3.577,1.123-7.484-0.954-8.613-4.545l-26.882-85.614
		c-1.127-3.591,0.921-7.433,4.498-8.556l-10.07,3.162c-3.969,1.246-6.173,5.487-4.921,9.473l29.833,95.01
		C275.739,543.944,279.969,546.154,283.938,544.908z"/>
</g>
<g>
	<path fill="#935C54" d="M405.156,433.101l-86.869,27.277c-3.738,1.174-5.818,5.156-4.644,8.895l2.979,9.484
		c-1.058-3.369,0.815-6.958,4.184-8.016l78.055-24.509c3.369-1.057,6.957,0.816,8.015,4.185l25.217,80.311
		c1.058,3.368-0.816,6.957-4.184,8.014l9.483-2.978c3.739-1.174,5.818-5.156,4.645-8.895l-27.986-89.126
		C412.876,434.006,408.894,431.927,405.156,433.101z"/>
	<path fill="#FFFFFF" d="M346.862,571.628l92.237-28.963c3.97-1.246,6.177-5.478,4.925-9.464l-3.175-10.11
		c1.128,3.591-0.828,7.51-4.405,8.633l-82.878,26.024c-3.576,1.123-7.483-0.955-8.611-4.546l-26.884-85.613
		c-1.127-3.59,0.922-7.433,4.498-8.555l-10.07,3.162c-3.969,1.246-6.173,5.487-4.921,9.472l29.833,95.011
		C338.664,570.663,342.892,572.874,346.862,571.628z"/>
</g>
<g>
	<path fill="#935C54" d="M374.379,417.977l-86.87,27.277c-3.739,1.173-5.817,5.156-4.644,8.894l2.978,9.484
		c-1.058-3.369,0.815-6.958,4.184-8.015l78.056-24.509c3.367-1.058,6.957,0.816,8.014,4.184l25.218,80.312
		c1.058,3.368-0.816,6.957-4.184,8.015l9.484-2.978c3.738-1.174,5.817-5.157,4.644-8.895l-27.986-89.125
		C382.1,418.881,378.118,416.803,374.379,417.977z"/>
	<path fill="#FFFFFF" d="M316.085,556.502l92.237-28.962c3.969-1.247,6.175-5.478,4.924-9.463l-3.175-10.11
		c1.129,3.592-0.827,7.509-4.404,8.634l-82.878,26.024c-3.577,1.122-7.485-0.956-8.611-4.546l-26.884-85.614
		c-1.127-3.591,0.922-7.433,4.498-8.555l-10.07,3.162c-3.969,1.246-6.173,5.488-4.921,9.472l29.833,95.01
		C307.886,555.539,312.116,557.75,316.085,556.502z"/>
</g>
<text transform="matrix(1 0 0 1 120 700)" fill="#FFFFFF" stroke="#FFFFFF" stroke-miterlimit="10" font-family="'SitkaBanner'" font-size="205"> 4 </text>
<!-- <text transform="matrix(1 0 0 1 206.542 672.8232)" fill="#A5A19F" stroke="#72706E" stroke-miterlimit="10" font-family="'SitkaBanner'" font-size="205"> 4 </text> -->
<!-- <text transform="matrix(1 0 0 1 381.4502 672.8232)" fill="#A5A19F" stroke="#72706E" stroke-miterlimit="10" font-family="'SitkaBanner'" font-size="71">RIDERS TECHNOLOGY</text> -->
<text transform="matrix(1 0 0 1 300 673.9)" fill="#FFFFFF" stroke="#FFFFFF" stroke-miterlimit="10" font-family="'SitkaBanner'" font-size="64">RIDERS TECHNOLOGY</text>
</svg>
